<svg width="120" height="104" viewBox="0 0 120 104" fill="none" xmlns="http://www.w3.org/2000/svg">
<path d="M0 74.2642V28.3645H15.8355V33.1941H16.0212C20.131 29.0773 24.5148 27.0178 29.1726 27.0178C31.4388 27.0178 33.6887 27.3196 35.9247 27.9187C38.1584 28.5131 40.3038 29.4396 42.361 30.6957C44.4229 31.9472 46.0947 33.7212 47.3764 36.0175C48.6581 38.3093 49.2989 40.9772 49.2989 44.0235V74.2642H33.4635V48.3144C33.4635 45.9321 32.7019 43.8447 31.1787 42.0545C29.6602 40.2667 27.6796 39.3704 25.2346 39.3704C22.843 39.3704 20.679 40.2968 18.7425 42.1474C16.8037 43.9933 15.8355 46.0482 15.8355 48.3144V74.2642H0Z" fill="#111111"/>
<path d="M55.0708 68.8122C49.9741 64.2752 47.427 58.4564 47.427 51.3606C47.427 44.2602 50.0786 38.4276 55.3865 33.8627C60.6921 29.3001 67.2515 27.0177 75.0671 27.0177C82.7619 27.0177 89.2494 29.3164 94.5248 33.9091C99.8048 38.5042 102.447 44.3206 102.447 51.3606C102.447 58.4007 99.8675 64.2032 94.7105 68.7657C89.5512 73.3306 83.0034 75.6108 75.0671 75.6108C66.8382 75.6108 60.172 73.3446 55.0708 68.8122ZM67.3305 43.5776C65.2733 45.6023 64.247 48.1982 64.247 51.3606C64.247 54.5185 65.2315 57.0981 67.2004 59.0973C69.1694 61.0988 71.763 62.0972 74.9835 62.0972C78.0856 62.0972 80.6327 61.0848 82.6273 59.0601C84.6264 57.0308 85.6272 54.4627 85.6272 51.3606C85.6272 48.1982 84.5986 45.6023 82.5437 43.5776C80.4865 41.5482 77.9672 40.5312 74.9835 40.5312C71.9418 40.5312 69.3923 41.5482 67.3305 43.5776Z" fill="#111111"/>
<path d="M102.98 2.77701C104.83 0.926445 107.039 0 109.602 0C112.17 0 114.378 0.926445 116.224 2.77701C118.075 4.62294 119.001 6.83108 119.001 9.39912C119.001 11.9625 118.075 14.1707 116.224 16.0212C114.378 17.8672 112.17 18.789 109.602 18.789C107.039 18.789 104.83 17.8672 102.98 16.0212C101.134 14.1707 100.212 11.9625 100.212 9.39912C100.212 6.83108 101.134 4.62294 102.98 2.77701ZM101.466 28.3645V74.2642H117.301V28.3645H101.466Z" fill="#111111"/>
<path d="M4.69756 79.4272C5.0621 79.4272 5.39878 79.5271 5.70991 79.7244C6.01873 79.9171 6.26253 80.1842 6.44364 80.5232C6.62939 80.8575 6.72227 81.229 6.72227 81.6377C6.72227 82.0463 6.62939 82.4248 6.44364 82.7708C6.26253 83.1121 6.01873 83.3838 5.70991 83.5881C5.39878 83.7878 5.0621 83.8853 4.69756 83.8853H2.75643V86.1701C2.75643 86.3071 2.71 86.4255 2.61712 86.523C2.52889 86.6159 2.41743 86.6623 2.28276 86.6623C2.13416 86.6623 2.01574 86.6159 1.92983 86.523C1.8416 86.4301 1.7998 86.314 1.7998 86.1701V79.9195C1.7998 79.7848 1.84856 79.6687 1.94841 79.5758C2.04593 79.4783 2.16435 79.4272 2.30134 79.4272H4.69756ZM4.69756 82.938C4.88331 82.938 5.05281 82.8799 5.20838 82.7615C5.36859 82.6384 5.4963 82.4782 5.58917 82.2785C5.68205 82.0812 5.72849 81.8676 5.72849 81.6377C5.72849 81.2847 5.62632 80.9875 5.42199 80.7461C5.22231 80.4999 4.98083 80.3746 4.69756 80.3746H2.75643V82.938H4.69756Z" fill="#111111"/>
<path d="M17.3236 81.1174C17.4954 81.1174 17.6486 81.1638 17.7787 81.2567C17.9133 81.3496 17.983 81.468 17.983 81.6096C17.983 81.7722 17.9389 81.8952 17.853 81.9812C17.7647 82.0694 17.6602 82.1112 17.5372 82.1112C17.4745 82.1112 17.3816 82.0926 17.2585 82.0555C17.1099 82.0067 16.9938 81.9812 16.9149 81.9812C16.7036 81.9812 16.497 82.0555 16.2926 82.2041C16.0883 82.3527 15.9211 82.557 15.7911 82.817C15.6657 83.0725 15.6053 83.3557 15.6053 83.6715V86.1699C15.6053 86.3069 15.5589 86.4253 15.466 86.5228C15.3732 86.6157 15.2524 86.6621 15.1038 86.6621C14.9598 86.6621 14.8438 86.6157 14.7509 86.5228C14.6626 86.4299 14.6208 86.3139 14.6208 86.1699V81.7397C14.6208 81.605 14.6673 81.4889 14.7602 81.396C14.853 81.2985 14.9668 81.2474 15.1038 81.2474C15.2524 81.2474 15.3732 81.2985 15.466 81.396C15.5589 81.4889 15.6053 81.605 15.6053 81.7397V82.2691C15.7539 81.9301 15.9792 81.6561 16.2833 81.4518C16.5852 81.2428 16.9335 81.1313 17.3236 81.1174Z" fill="#111111"/>
<path d="M30.7575 83.9501C30.7575 84.4888 30.6368 84.9718 30.3953 85.399C30.1538 85.8262 29.8218 86.1606 29.4015 86.4021C28.9859 86.6436 28.5285 86.7643 28.027 86.7643C27.5254 86.7643 27.0634 86.6436 26.6431 86.4021C26.2275 86.1606 25.9001 85.8262 25.6586 85.399C25.4171 84.9718 25.2964 84.4888 25.2964 83.9501C25.2964 83.4184 25.4171 82.9355 25.6586 82.5013C25.9001 82.0624 26.2275 81.7211 26.6431 81.4796C27.0634 81.2381 27.5254 81.1174 28.027 81.1174C28.5285 81.1174 28.9859 81.2381 29.4015 81.4796C29.8218 81.7211 30.1538 82.0624 30.3953 82.5013C30.6368 82.9355 30.7575 83.4184 30.7575 83.9501ZM29.773 83.9501C29.773 83.5786 29.6941 83.2489 29.5409 82.9564C29.3853 82.6661 29.174 82.4409 28.9093 82.2784C28.6492 82.1112 28.3544 82.0276 28.027 82.0276C27.7042 82.0276 27.4093 82.1112 27.1446 82.2784C26.8776 82.4409 26.6663 82.6661 26.5131 82.9564C26.3575 83.2489 26.2809 83.5786 26.2809 83.9501C26.2809 84.317 26.3575 84.6444 26.5131 84.9346C26.6663 85.2272 26.8776 85.4524 27.1446 85.6126C27.4093 85.7752 27.7042 85.8541 28.027 85.8541C28.3544 85.8541 28.6492 85.7752 28.9093 85.6126C29.174 85.4524 29.3853 85.2272 29.5409 84.9346C29.6941 84.6444 29.773 84.317 29.773 83.9501Z" fill="#111111"/>
<path d="M43.0241 79.0087C43.1657 79.0087 43.2841 79.0552 43.377 79.148C43.4699 79.2409 43.5163 79.3617 43.5163 79.5103V86.1695C43.5163 86.3065 43.4699 86.4249 43.377 86.5225C43.2841 86.6153 43.1657 86.6618 43.0241 86.6618C42.8801 86.6618 42.764 86.6153 42.6711 86.5225C42.5829 86.4296 42.5411 86.3135 42.5411 86.1695V85.8723C42.367 86.1208 42.1231 86.3321 41.8074 86.5039C41.4962 86.6757 41.1619 86.7639 40.8043 86.7639C40.333 86.7639 39.908 86.6432 39.5319 86.4017C39.1534 86.1602 38.8539 85.8259 38.631 85.3986C38.4081 84.9668 38.2966 84.4792 38.2966 83.9405C38.2966 83.4018 38.4034 82.9188 38.6217 82.4916C38.8446 82.0597 39.1441 81.7207 39.5226 81.4792C39.8988 81.2378 40.3144 81.117 40.7672 81.117C41.1317 81.117 41.4684 81.196 41.7795 81.3492C42.0953 81.4978 42.3484 81.6929 42.5411 81.9343V79.5103C42.5411 79.3617 42.5829 79.2409 42.6711 79.148C42.764 79.0552 42.8801 79.0087 43.0241 79.0087ZM40.9158 85.8537C41.2362 85.8537 41.5241 85.7748 41.7795 85.6123C42.0326 85.4451 42.2276 85.2175 42.3646 84.925C42.5063 84.6347 42.5782 84.3073 42.5782 83.9405C42.5782 83.5829 42.5063 83.2578 42.3646 82.9653C42.2276 82.675 42.0326 82.4452 41.7795 82.278C41.5241 82.1108 41.2362 82.0272 40.9158 82.0272C40.593 82.0272 40.3051 82.1108 40.052 82.278C39.7966 82.4452 39.5992 82.675 39.4576 82.9653C39.3206 83.2578 39.2533 83.5829 39.2533 83.9405C39.2533 84.3073 39.3206 84.6347 39.4576 84.925C39.5992 85.2175 39.7966 85.4451 40.052 85.6123C40.3051 85.7748 40.593 85.8537 40.9158 85.8537Z" fill="#111111"/>
<path d="M55.7516 81.2469C55.8932 81.2469 56.0116 81.298 56.1045 81.3956C56.202 81.4884 56.2531 81.6045 56.2531 81.7392V84.4883C56.2531 85.2081 56.0534 85.7654 55.6587 86.1601C55.2616 86.5572 54.702 86.7545 53.9776 86.7545C53.2578 86.7545 52.7006 86.5572 52.3058 86.1601C51.9157 85.7654 51.7207 85.2081 51.7207 84.4883V81.7392C51.7207 81.6045 51.7671 81.4884 51.86 81.3956C51.9529 81.298 52.0667 81.2469 52.2037 81.2469C52.3523 81.2469 52.473 81.298 52.5659 81.3956C52.6588 81.4884 52.7052 81.6045 52.7052 81.7392V84.4883C52.7052 85.3939 53.1278 85.8443 53.9776 85.8443C54.3979 85.8443 54.716 85.7329 54.9342 85.51C55.1571 85.2824 55.2686 84.9411 55.2686 84.4883V81.7392C55.2686 81.6045 55.315 81.4884 55.4079 81.3956C55.5008 81.298 55.6146 81.2469 55.7516 81.2469Z" fill="#111111"/>
<path d="M66.8135 81.1172C67.3569 81.1172 67.8096 81.2055 68.1695 81.3773C68.5341 81.5514 68.7175 81.772 68.7175 82.0367C68.7175 82.1551 68.6757 82.2596 68.5968 82.3525C68.5225 82.4454 68.425 82.4918 68.3089 82.4918C68.2206 82.4918 68.151 82.4802 68.0952 82.4547C68.0442 82.4315 67.9768 82.3873 67.8909 82.3246C67.8468 82.2829 67.7795 82.2318 67.6866 82.176C67.6053 82.1342 67.4869 82.0994 67.3337 82.0739C67.185 82.0437 67.0481 82.0274 66.925 82.0274C66.5651 82.0274 66.247 82.111 65.9684 82.2782C65.6944 82.4454 65.4808 82.6753 65.3275 82.9655C65.1789 83.2581 65.1046 83.5831 65.1046 83.9407C65.1046 84.3076 65.1789 84.635 65.3275 84.9252C65.4761 85.2178 65.6828 85.4453 65.9498 85.6125C66.2215 85.775 66.5279 85.854 66.8693 85.854C67.2268 85.854 67.5194 85.7982 67.7423 85.6868C67.7911 85.6636 67.8561 85.6194 67.9373 85.5568C68.0047 85.501 68.0627 85.4616 68.1138 85.436C68.1695 85.4058 68.2346 85.3896 68.3089 85.3896C68.4435 85.3896 68.5527 85.4337 68.6339 85.5196C68.7129 85.6078 68.7547 85.7193 68.7547 85.854C68.7547 86.0026 68.6618 86.1488 68.476 86.2905C68.2949 86.4275 68.0511 86.5412 67.7423 86.6341C67.4381 86.72 67.1107 86.7642 66.7578 86.7642C66.2377 86.7642 65.7756 86.6434 65.374 86.4019C64.9769 86.1558 64.6681 85.8168 64.4452 85.3896C64.2269 84.9577 64.1201 84.4747 64.1201 83.9407C64.1201 83.4159 64.2339 82.9353 64.4638 82.5011C64.6913 82.0692 65.0071 81.7302 65.4111 81.4888C65.8198 81.2426 66.2865 81.1172 66.8135 81.1172Z" fill="#111111"/>
<path d="M77.9705 82.204V85.2875C77.9705 85.6357 78.1238 85.8076 78.4349 85.8076C78.4837 85.8076 78.5487 85.796 78.6299 85.7704C78.7159 85.7472 78.7809 85.7333 78.825 85.7333C78.9179 85.7333 78.9945 85.7704 79.0572 85.8447C79.1175 85.919 79.1501 86.0165 79.1501 86.1326C79.1501 86.2812 79.0665 86.4089 78.8993 86.5134C78.7368 86.6133 78.551 86.662 78.342 86.662C78.1122 86.662 77.9009 86.6388 77.7105 86.5877C77.5247 86.539 77.3575 86.4182 77.2089 86.2255C77.0603 86.0282 76.986 85.7286 76.986 85.3246V82.204H76.3916C76.2616 82.204 76.1525 82.1622 76.0666 82.0739C75.9783 81.988 75.9365 81.8789 75.9365 81.7489C75.9365 81.6188 75.9783 81.5143 76.0666 81.4331C76.1525 81.3472 76.2616 81.3031 76.3916 81.3031H76.986V80.4393C76.986 80.3046 77.0325 80.1885 77.1253 80.0957C77.2182 79.9981 77.339 79.9471 77.4876 79.9471C77.6222 79.9471 77.7383 79.9981 77.8312 80.0957C77.9241 80.1885 77.9705 80.3046 77.9705 80.4393V81.3031H78.825C78.9597 81.3031 79.0688 81.3472 79.1501 81.4331C79.236 81.5213 79.2801 81.6281 79.2801 81.7581C79.2801 81.8951 79.236 82.0043 79.1501 82.0832C79.0688 82.1645 78.9597 82.204 78.825 82.204H77.9705Z" fill="#111111"/>
<path d="M92.2966 83.9501C92.2966 84.4888 92.1759 84.9718 91.9344 85.399C91.6929 85.8262 91.3609 86.1606 90.9406 86.4021C90.525 86.6436 90.0676 86.7643 89.566 86.7643C89.0645 86.7643 88.6024 86.6436 88.1822 86.4021C87.7665 86.1606 87.4391 85.8262 87.1977 85.399C86.9562 84.9718 86.8354 84.4888 86.8354 83.9501C86.8354 83.4184 86.9562 82.9355 87.1977 82.5013C87.4391 82.0624 87.7665 81.7211 88.1822 81.4796C88.6024 81.2381 89.0645 81.1174 89.566 81.1174C90.0676 81.1174 90.525 81.2381 90.9406 81.4796C91.3609 81.7211 91.6929 82.0624 91.9344 82.5013C92.1759 82.9355 92.2966 83.4184 92.2966 83.9501ZM91.3121 83.9501C91.3121 83.5786 91.2332 83.2489 91.0799 82.9564C90.9243 82.6661 90.7131 82.4409 90.4484 82.2784C90.1883 82.1112 89.8934 82.0276 89.566 82.0276C89.2433 82.0276 88.9484 82.1112 88.6837 82.2784C88.4167 82.4409 88.2054 82.6661 88.0521 82.9564C87.8966 83.2489 87.8199 83.5786 87.8199 83.9501C87.8199 84.317 87.8966 84.6444 88.0521 84.9346C88.2054 85.2272 88.4167 85.4524 88.6837 85.6126C88.9484 85.7752 89.2433 85.8541 89.566 85.8541C89.8934 85.8541 90.1883 85.7752 90.4484 85.6126C90.7131 85.4524 90.9243 85.2272 91.0799 84.9346C91.2332 84.6444 91.3121 84.317 91.3121 83.9501Z" fill="#111111"/>
<path d="M102.877 81.1174C103.049 81.1174 103.202 81.1638 103.332 81.2567C103.467 81.3496 103.537 81.468 103.537 81.6096C103.537 81.7722 103.493 81.8952 103.407 81.9812C103.318 82.0694 103.214 82.1112 103.091 82.1112C103.028 82.1112 102.935 82.0926 102.812 82.0555C102.664 82.0067 102.548 81.9812 102.469 81.9812C102.257 81.9812 102.051 82.0555 101.846 82.2041C101.642 82.3527 101.475 82.557 101.345 82.817C101.219 83.0725 101.159 83.3557 101.159 83.6715V86.1699C101.159 86.3069 101.113 86.4253 101.02 86.5228C100.927 86.6157 100.806 86.6621 100.658 86.6621C100.514 86.6621 100.397 86.6157 100.305 86.5228C100.216 86.4299 100.175 86.3139 100.175 86.1699V81.7397C100.175 81.605 100.221 81.4889 100.314 81.396C100.407 81.2985 100.521 81.2474 100.658 81.2474C100.806 81.2474 100.927 81.2985 101.02 81.396C101.113 81.4889 101.159 81.605 101.159 81.7397V82.2691C101.308 81.9301 101.533 81.6561 101.837 81.4518C102.139 81.2428 102.487 81.1313 102.877 81.1174Z" fill="#111111"/>
<path d="M115.578 81.1731C115.719 81.1731 115.838 81.2196 115.931 81.3124C116.024 81.4053 116.07 81.5307 116.07 81.6839V86.1699C116.07 86.3069 116.024 86.4253 115.931 86.5228C115.838 86.6157 115.719 86.6621 115.578 86.6621C115.434 86.6621 115.318 86.6157 115.225 86.5228C115.137 86.4299 115.095 86.3139 115.095 86.1699V85.9006C114.914 86.142 114.67 86.3464 114.361 86.5135C114.05 86.6807 113.716 86.7643 113.358 86.7643C112.887 86.7643 112.459 86.6436 112.076 86.4021C111.698 86.1606 111.398 85.8262 111.175 85.399C110.957 84.9671 110.85 84.4795 110.85 83.9409C110.85 83.4022 110.957 82.9192 111.175 82.492C111.398 82.0601 111.698 81.7211 112.076 81.4796C112.452 81.2381 112.868 81.1174 113.321 81.1174C113.685 81.1174 114.027 81.1963 114.343 81.3496C114.658 81.4982 114.909 81.6909 115.095 81.9254V81.6839C115.095 81.5353 115.137 81.4146 115.225 81.3217C115.318 81.2242 115.434 81.1731 115.578 81.1731ZM113.469 85.8541C113.79 85.8541 114.078 85.7752 114.333 85.6126C114.586 85.4455 114.781 85.2179 114.918 84.9253C115.06 84.6351 115.132 84.3077 115.132 83.9409C115.132 83.5833 115.06 83.2605 114.918 82.9749C114.781 82.6847 114.586 82.4548 114.333 82.2876C114.078 82.1158 113.79 82.0276 113.469 82.0276C113.147 82.0276 112.859 82.1112 112.606 82.2784C112.35 82.4455 112.153 82.6754 112.011 82.9656C111.874 83.2512 111.807 83.5763 111.807 83.9409C111.807 84.3077 111.874 84.6351 112.011 84.9253C112.153 85.2179 112.35 85.4455 112.606 85.6126C112.859 85.7752 113.147 85.8541 113.469 85.8541Z" fill="#111111"/>
<path d="M18.5305 97.0086C18.9066 97.1386 19.2178 97.3569 19.4593 97.6587C19.7054 97.9559 19.8308 98.346 19.8308 98.829C19.8308 99.5906 19.6079 100.136 19.1621 100.464C18.7162 100.793 18.1729 100.956 17.5367 100.956H14.8804C14.7434 100.956 14.625 100.909 14.5275 100.817C14.4277 100.719 14.3789 100.601 14.3789 100.464V94.213C14.3789 94.0783 14.4277 93.9622 14.5275 93.8694C14.625 93.7718 14.7434 93.7208 14.8804 93.7208H17.5367C18.1613 93.7208 18.6373 93.8763 18.967 94.1851C19.2944 94.4963 19.4593 94.9444 19.4593 95.5319C19.4593 95.8616 19.378 96.1541 19.2178 96.4142C19.0622 96.6742 18.8323 96.8739 18.5305 97.0086ZM18.3912 95.6805C18.3912 95.36 18.3006 95.1139 18.1218 94.9467C17.9477 94.7796 17.7039 94.696 17.3881 94.696H15.4377V96.7114H17.4067C17.69 96.6998 17.9268 96.6069 18.1125 96.4328C18.2983 96.2609 18.3912 96.0102 18.3912 95.6805ZM17.5274 100.009C17.9036 100.009 18.2054 99.911 18.4283 99.7113C18.6559 99.5139 18.772 99.2191 18.772 98.829C18.772 98.0627 18.3378 97.6773 17.4717 97.6773H15.4377V100.009H17.5274Z" fill="#111111"/>
<path d="M32.875 98.2439C32.875 98.7826 32.7542 99.2656 32.5127 99.6928C32.2713 100.12 31.9392 100.454 31.519 100.696C31.1033 100.937 30.6459 101.058 30.1444 101.058C29.6429 101.058 29.1808 100.937 28.7605 100.696C28.3449 100.454 28.0175 100.12 27.776 99.6928C27.5346 99.2656 27.4138 98.7826 27.4138 98.2439C27.4138 97.7122 27.5346 97.2293 27.776 96.7951C28.0175 96.3562 28.3449 96.0149 28.7605 95.7734C29.1808 95.5319 29.6429 95.4112 30.1444 95.4112C30.6459 95.4112 31.1033 95.5319 31.519 95.7734C31.9392 96.0149 32.2713 96.3562 32.5127 96.7951C32.7542 97.2293 32.875 97.7122 32.875 98.2439ZM31.8905 98.2439C31.8905 97.8724 31.8115 97.5427 31.6583 97.2502C31.5027 96.9599 31.2914 96.7347 31.0267 96.5722C30.7667 96.405 30.4718 96.3214 30.1444 96.3214C29.8216 96.3214 29.5268 96.405 29.2621 96.5722C28.995 96.7347 28.7837 96.9599 28.6305 97.2502C28.4749 97.5427 28.3983 97.8724 28.3983 98.2439C28.3983 98.6108 28.4749 98.9382 28.6305 99.2284C28.7837 99.521 28.995 99.7462 29.2621 99.9064C29.5268 100.069 29.8216 100.148 30.1444 100.148C30.4718 100.148 30.7667 100.069 31.0267 99.9064C31.2914 99.7462 31.5027 99.521 31.6583 99.2284C31.8115 98.9382 31.8905 98.6108 31.8905 98.2439Z" fill="#111111"/>
<path d="M44.7838 95.541C44.9254 95.541 45.0438 95.5921 45.1367 95.6896C45.2342 95.7825 45.2853 95.8986 45.2853 96.0333V98.7824C45.2853 99.5022 45.0856 100.059 44.6909 100.454C44.2939 100.851 43.7343 101.049 43.0098 101.049C42.29 101.049 41.7328 100.851 41.3381 100.454C40.948 100.059 40.7529 99.5022 40.7529 98.7824V96.0333C40.7529 95.8986 40.7994 95.7825 40.8922 95.6896C40.9851 95.5921 41.0989 95.541 41.2359 95.541C41.3845 95.541 41.5052 95.5921 41.5981 95.6896C41.691 95.7825 41.7374 95.8986 41.7374 96.0333V98.7824C41.7374 99.688 42.16 100.138 43.0098 100.138C43.4301 100.138 43.7482 100.027 43.9665 99.8041C44.1894 99.5765 44.3008 99.2352 44.3008 98.7824V96.0333C44.3008 95.8986 44.3473 95.7825 44.4401 95.6896C44.533 95.5921 44.6468 95.541 44.7838 95.541Z" fill="#111111"/>
<path d="M54.9517 96.4978V99.5813C54.9517 99.9296 55.105 100.101 55.4161 100.101C55.4649 100.101 55.5299 100.09 55.6111 100.064C55.6971 100.041 55.7621 100.027 55.8062 100.027C55.8991 100.027 55.9757 100.064 56.0384 100.139C56.0988 100.213 56.1313 100.31 56.1313 100.426C56.1313 100.575 56.0477 100.703 55.8805 100.807C55.718 100.907 55.5322 100.956 55.3232 100.956C55.0934 100.956 54.8821 100.933 54.6917 100.882C54.5059 100.833 54.3387 100.712 54.1901 100.519C54.0415 100.322 53.9672 100.022 53.9672 99.6185V96.4978H53.3728C53.2428 96.4978 53.1337 96.456 53.0478 96.3678C52.9595 96.2819 52.9177 96.1727 52.9177 96.0427C52.9177 95.9127 52.9595 95.8082 53.0478 95.7269C53.1337 95.641 53.2428 95.5969 53.3728 95.5969H53.9672V94.7332C53.9672 94.5985 54.0137 94.4824 54.1065 94.3895C54.1994 94.292 54.3202 94.2409 54.4688 94.2409C54.6034 94.2409 54.7195 94.292 54.8124 94.3895C54.9053 94.4824 54.9517 94.5985 54.9517 94.7332V95.5969H55.8062C55.9409 95.5969 56.05 95.641 56.1313 95.7269C56.2172 95.8152 56.2613 95.922 56.2613 96.052C56.2613 96.189 56.2172 96.2981 56.1313 96.3771C56.05 96.4583 55.9409 96.4978 55.8062 96.4978H54.9517Z" fill="#111111"/>
<path d="M65.079 100.464C65.079 100.601 65.0326 100.719 64.9397 100.817C64.8469 100.91 64.7284 100.956 64.5868 100.956C64.4498 100.956 64.3314 100.91 64.2339 100.817C64.141 100.719 64.0946 100.601 64.0946 100.464V95.9872C64.0946 95.8456 64.141 95.7272 64.2339 95.6343C64.3314 95.5368 64.4498 95.4857 64.5868 95.4857C64.7284 95.4857 64.8469 95.5368 64.9397 95.6343C65.0326 95.7272 65.079 95.8456 65.079 95.9872V100.464ZM64.5868 94.8077C64.3871 94.8077 64.2455 94.7705 64.1596 94.6962C64.0713 94.6219 64.0295 94.5082 64.0295 94.3526V94.1854C64.0295 94.0182 64.076 93.9021 64.1689 93.8325C64.2617 93.7651 64.4034 93.7303 64.5961 93.7303C64.7935 93.7303 64.9328 93.7675 65.014 93.8418C65.0999 93.9114 65.1441 94.0252 65.1441 94.1854V94.3526C65.1441 94.5198 65.0976 94.6382 65.0047 94.7055C64.9165 94.7752 64.7772 94.8077 64.5868 94.8077Z" fill="#111111"/>
<path d="M77.6305 95.5229C77.7721 95.5229 77.8906 95.5693 77.9834 95.6622C78.0763 95.7551 78.1227 95.8758 78.1227 96.0244V102.526C78.1227 102.66 78.0763 102.779 77.9834 102.879C77.8906 102.976 77.7721 103.027 77.6305 103.027C77.4865 103.027 77.3704 102.981 77.2776 102.888C77.1893 102.795 77.1475 102.674 77.1475 102.526V100.167C76.9734 100.415 76.7296 100.626 76.4138 100.798C76.1027 100.97 75.7683 101.058 75.4107 101.058C74.9394 101.058 74.5145 100.938 74.1383 100.696C73.7599 100.455 73.4603 100.12 73.2374 99.693C73.0145 99.2611 72.9031 98.7735 72.9031 98.2349C72.9031 97.6962 73.0099 97.2132 73.2281 96.786C73.451 96.3541 73.7506 96.0151 74.129 95.7736C74.5052 95.5321 74.9208 95.4114 75.3736 95.4114C75.7381 95.4114 76.0748 95.4904 76.386 95.6436C76.7017 95.7922 76.9548 95.9872 77.1475 96.2287V96.0244C77.1475 95.8828 77.1893 95.7643 77.2776 95.6715C77.3704 95.5739 77.4865 95.5229 77.6305 95.5229ZM75.5222 100.148C75.8426 100.148 76.1305 100.069 76.386 99.9066C76.639 99.7395 76.8341 99.5119 76.9711 99.2194C77.1127 98.9291 77.1847 98.6017 77.1847 98.2349C77.1847 97.8773 77.1127 97.5522 76.9711 97.2597C76.8341 96.9694 76.639 96.7395 76.386 96.5724C76.1305 96.4052 75.8426 96.3216 75.5222 96.3216C75.1995 96.3216 74.9115 96.4052 74.6584 96.5724C74.403 96.7395 74.2057 96.9694 74.064 97.2597C73.927 97.5522 73.8597 97.8773 73.8597 98.2349C73.8597 98.6017 73.927 98.9291 74.064 99.2194C74.2057 99.5119 74.403 99.7395 74.6584 99.9066C74.9115 100.069 75.1995 100.148 75.5222 100.148Z" fill="#111111"/>
<path d="M90.3541 95.541C90.4957 95.541 90.6141 95.5921 90.707 95.6896C90.8045 95.7825 90.8556 95.8986 90.8556 96.0333V98.7824C90.8556 99.5022 90.6559 100.059 90.2612 100.454C89.8642 100.851 89.3046 101.049 88.5801 101.049C87.8604 101.049 87.3031 100.851 86.9084 100.454C86.5183 100.059 86.3232 99.5022 86.3232 98.7824V96.0333C86.3232 95.8986 86.3697 95.7825 86.4626 95.6896C86.5554 95.5921 86.6692 95.541 86.8062 95.541C86.9548 95.541 87.0755 95.5921 87.1684 95.6896C87.2613 95.7825 87.3077 95.8986 87.3077 96.0333V98.7824C87.3077 99.688 87.7303 100.138 88.5801 100.138C89.0004 100.138 89.3185 100.027 89.5368 99.8041C89.7597 99.5765 89.8711 99.2352 89.8711 98.7824V96.0333C89.8711 95.8986 89.9176 95.7825 90.0104 95.6896C90.1033 95.5921 90.2171 95.541 90.3541 95.541Z" fill="#111111"/>
<path d="M103.81 98.0399C103.803 98.1653 103.75 98.2697 103.652 98.3557C103.559 98.4439 103.448 98.4857 103.318 98.4857H99.6771C99.7258 98.9872 99.9186 99.3912 100.253 99.6931C100.587 99.9973 100.991 100.148 101.47 100.148C101.804 100.148 102.073 100.102 102.278 100.009C102.487 99.9113 102.67 99.786 102.826 99.6374C102.93 99.577 103.032 99.5445 103.132 99.5445C103.244 99.5445 103.339 99.5863 103.42 99.6652C103.499 99.7465 103.541 99.8417 103.541 99.9531C103.541 100.097 103.471 100.227 103.336 100.343C103.137 100.548 102.872 100.719 102.538 100.854C102.208 100.989 101.871 101.058 101.525 101.058C100.968 101.058 100.476 100.942 100.049 100.705C99.626 100.471 99.2986 100.146 99.0641 99.7302C98.8342 99.31 98.7205 98.834 98.7205 98.2999C98.7205 97.7195 98.8366 97.211 99.0734 96.7768C99.3149 96.3379 99.6307 96.0012 100.021 95.7644C100.411 95.5299 100.829 95.4115 101.275 95.4115C101.72 95.4115 102.134 95.5276 102.519 95.7551C102.902 95.985 103.211 96.3008 103.448 96.7025C103.682 97.0995 103.803 97.5453 103.81 98.0399ZM101.275 96.3217C100.889 96.3217 100.555 96.4308 100.271 96.6467C99.9929 96.865 99.8071 97.2017 99.7142 97.6591H102.77V97.5755C102.733 97.211 102.566 96.9114 102.268 96.6746C101.976 96.4401 101.646 96.3217 101.275 96.3217Z" fill="#111111"/>
</svg>
